#!OML:ASF H:\Terrain\Patient Classification 1\Walking\liu\liu.ASF
:FULLY-SPECIFIED
:DEGREES
242
root 9.44724 17.1982 18.91 8.37894 -3.75017 -2.66642
lowerback -3.14041 1.02528 -0.629315
upperback 0.750798 1.30305 3.73848
thorax 2.43358 0.613635 4.27975
lowerneck -19.827 -3.30139 -10.3986
upperneck 18.4686 -3.69907 9.94466
head 9.48447 -1.35723 4.69291
rclavicle 5.06901e-015 1.27222e-014
rhumerus -31.8702 17.7469 -86.7308
rradius 35.4578
rwrist -19.9677
rhand -30.3495 -27.13
rfingers 7.12502
rthumb -3.65492 -57.0784
lclavicle 5.06901e-015 1.27222e-014
lhumerus -41.4405 -14.4417 97.6799
lradius 25.4391
lwrist 2.3912
lhand -16.6186 -27.0673
lfingers 7.12502
lthumb 9.60337 2.69384
rfemur -12.7696 3.43214 30.214
rtibia 29.4613
rfoot -17.3784 6.12796
rtoes -16.5412
lfemur -37.828 6.19393 -18.6475
ltibia 59.1148
lfoot -14.5648 13.7595
ltoes -10.4578
243
root 9.46759 17.2267 19.1449 8.37981 -4.28363 -2.73024
lowerback -3.35818 1.1799 -0.382662
upperback 0.743465 1.49691 3.69112
thorax 2.54065 0.713147 4.10613
lowerneck -19.3569 -3.25467 -10.3976
upperneck 18.2411 -3.66375 9.93372
head 9.31562 -1.35259 4.68591
rclavicle 9.44227e-015 2.62396e-014
rhumerus -31.3247 19.1494 -87.0557
rradius 36.4416
rwrist -20.3916
rhand -30.0935 -27.3636
rfingers 7.12502
rthumb -3.40776 -57.3161
lclavicle 9.44227e-015 2.62396e-014
lhumerus -42.7011 -14.2979 97.8407
lradius 24.8949
lwrist 1.61467
lhand -15.5522 -26.516
lfingers 7.12502
lthumb 10.6322 3.19505
rfemur -11.2882 2.90469 30.0969
rtibia 28.3389
rfoot -16.8804 6.88921
rtoes -16.7705
lfemur -38.2035 6.00878 -18.6247
ltibia 56.4661
lfoot -15.6701 13.0689
ltoes -8.31466
244
root 9.48338 17.2455 19.3683 8.42331 -4.78161 -3.32217
lowerback -3.38111 1.33969 0.293327
upperback 0.607362 1.68057 3.84336
thorax 2.4146 0.816041 3.88952
lowerneck -18.8027 -3.09653 -10.3663
upperneck 18.12 -3.50606 9.96106
head 9.15469 -1.28689 4.70702
rclavicle -2.18663e-015 -2.38542e-015
rhumerus -30.8767 20.5172 -87.3829
rradius 37.1639
rwrist -20.818
rhand -30.6388 -27.879
rfingers 7.12502
rthumb -3.93438 -57.8224
lclavicle -2.18663e-015 -2.38542e-015
lhumerus -44.1048 -13.7854 97.8547
lradius 24.3223
lwrist -0.0109363
lhand -14.603 -26.2513
lfingers 7.12502
lthumb 11.5476 3.41053
rfemur -9.89008 3.07866 30.5827
rtibia 27.4949
rfoot -16.6646 7.13883
rtoes -16.4034
lfemur -38.5878 5.92917 -17.9147
ltibia 53.6043
lfoot -15.7122 12.1906
ltoes -5.26693
245
root 9.50208 17.2775 19.5808 8.67574 -5.34936 -3.90245
lowerback -3.64537 1.60752 1.02452
upperback 0.717941 1.98988 3.95008
thorax 2.67858 0.977262 3.61661
lowerneck -18.9558 -3.18932 -10.532
upperneck 17.9416 -3.60305 10.1527
head 9.13947 -1.31907 4.78608
rclavicle 1.78906e-015 -3.18055e-015
rhumerus -29.7275 21.7712 -87.3233
rradius 37.9423
rwrist -21.4084
rhand -31.4823 -26.3817
rfingers 7.12502
rthumb -4.74887 -56.3085
lclavicle 1.78906e-015 -3.18055e-015
lhumerus -44.9814 -13.8322 97.983
lradius 23.8291
lwrist -1.51636
lhand -13.9052 -26.334
lfingers 7.12502
lthumb 12.2205 3.28896
rfemur -8.76424 3.35237 30.9964
rtibia 26.4256
rfoot -15.9409 7.38882
rtoes -15.128
lfemur -39.1984 5.91994 -17.2221
ltibia 50.5946
lfoot -15.4069 11.7492
ltoes -8.12018
246
root 9.49849 17.2859 19.7276 8.51954 -5.8727 -3.17856
lowerback -2.73643 1.74119 -0.0173811
upperback 0.773618 2.23971 3.81782
thorax 2.17636 1.09283 4.04584
lowerneck -19.3061 -3.26332 -10.6114
upperneck 17.8315 -3.6436 10.1687
head 9.17175 -1.33283 4.79788
rclavicle -3.20043e-014 -7.39479e-014
rhumerus -28.5671 23.3449 -87.15
rradius 39.1526
rwrist -22.2403
rhand -31.5025 -24.2689
rfingers 7.12502
rthumb -4.76835 -54.1952
lclavicle -3.20043e-014 -7.39479e-014
lhumerus -45.7908 -13.9039 98.1862
lradius 23.5615
lwrist -2.18083
lhand -12.9376 -26.2643
lfingers 7.12502
lthumb 13.1533 3.30083
rfemur -7.79733 4.76517 30.325
rtibia 25.4658
rfoot -15.4173 6.03555
rtoes -15.605
lfemur -39.7427 5.68833 -17.8322
ltibia 47.2978
lfoot -14.9225 11.7507
ltoes -11.7813
247
root 9.51813 17.2942 19.9701 8.7116 -6.39197 -3.59669
lowerback -3.00219 1.94082 0.561738
upperback 0.705955 2.47859 3.84835
thorax 2.26257 1.21912 3.77044
lowerneck -19.1942 -3.17563 -10.1716
upperneck 17.877 -3.54205 9.61857
head 9.13599 -1.31654 4.54149
rclavicle -6.4605e-015 1.59028e-015
rhumerus -28.2553 24.8606 -87.264
rradius 40.7179
rwrist -23.0742
rhand -30.6511 -26.2038
rfingers 7.12502
rthumb -3.94618 -56.147
lclavicle -6.4605e-015 1.59028e-015
lhumerus -47.0142 -13.6561 98.1475
lradius 23.2973
lwrist -2.85809
lhand -11.5157 -26.1084
lfingers 7.12502
lthumb 14.5237 3.36319
rfemur -6.52012 4.22736 30.5418
rtibia 24.5311
rfoot -15.3697 6.7129
rtoes -17.1681
lfemur -39.9384 5.58328 -17.3427
ltibia 43.9471
lfoot -14.7911 11.6512
ltoes -10.8943
248
root 9.53581 17.2826 20.1972 8.80284 -6.94182 -3.77389
lowerback -3.04976 2.24162 0.935711
upperback 0.62786 2.86771 3.79014
thorax 2.20661 1.41956 3.51729
lowerneck -19.1291 -3.21131 -9.94753
upperneck 17.9407 -3.6072 9.34915
head 9.14384 -1.36191 4.4001
rclavicle -4.57205e-015 -2.78299e-014
rhumerus -27.9649 26.0122 -87.194
rradius 42.0361
rwrist -23.7492
rhand -30.1478 -28.245
rfingers 7.12502
rthumb -3.46018 -58.1966
lclavicle -4.57205e-015 -2.78299e-014
lhumerus -48.2033 -13.7901 98.256
lradius 22.9504
lwrist -3.37538
lhand -10.1179 -26.1556
lfingers 7.12502
lthumb 15.8701 3.214
rfemur -5.20346 4.09842 30.5208
rtibia 23.7265
rfoot -15.5146 7.05275
rtoes -18.2682
lfemur -39.917 5.42476 -17.0799
ltibia 40.4256
lfoot -14.5658 11.4363
ltoes -11.6066
249
root 9.55444 17.2681 20.4204 9.05022 -7.5472 -4.00793
lowerback -3.29894 2.54021 1.29602
upperback 0.544717 3.24555 3.79267
thorax 2.26076 1.61265 3.34581
lowerneck -19.3031 -3.27089 -9.99408
upperneck 18.1617 -3.70041 9.46883
head 9.26515 -1.3923 4.44362
rclavicle 6.19214e-014 2.54444e-014
rhumerus -27.4785 27.123 -86.9644
rradius 43.0494
rwrist -24.2829
rhand -30.3768 -25.6236
rfingers 7.12502
rthumb -3.68134 -55.5716
lclavicle 6.19214e-014 2.54444e-014
lhumerus -49.5299 -14.0062 98.5665
lradius 22.8869
lwrist -3.4538
lhand -8.95499 -26.1446
lfingers 7.12502
lthumb 16.9898 3.13242
rfemur -3.88064 4.41087 30.4797
rtibia 22.4115
rfoot -14.9144 7.51428
rtoes -16.1094
lfemur -40.0113 5.46023 -16.8416
ltibia 36.9995
lfoot -14.2781 11.179
ltoes -15.643
250
root 9.57148 17.2664 20.6478 9.34815 -8.06833 -4.20149
lowerback -3.62588 2.71365 1.49823
upperback 0.46801 3.45752 3.82723
thorax 2.36516 1.72034 3.29477
lowerneck -19.5376 -3.2676 -9.92289
upperneck 18.3648 -3.71143 9.48534
head 9.37814 -1.38562 4.44168
rclavicle 1.69961e-014 6.2816e-014
rhumerus -27.0031 28.5055 -86.823
rradius 44.2125
rwrist -24.8222
rhand -30.9874 -21.5988
rfingers 7.12502
rthumb -4.27101 -51.5358
lclavicle 1.69961e-014 6.2816e-014
lhumerus -50.7313 -13.7477 98.5848
lradius 22.8468
lwrist -3.89321
lhand -8.5486 -26.1719
lfingers 7.12502
lthumb 17.3809 3.07093
rfemur -2.70587 4.50952 30.3546
rtibia 21.1495
rfoot -14.0043 8.19803
rtoes -13.0135
lfemur -40.1578 5.31949 -16.5249
ltibia 33.5922
lfoot -14.3246 10.9327
ltoes -16.9523
251
root 9.58958 17.2679 20.8808 9.5284 -8.55429 -4.32594
lowerback -3.81273 2.88751 1.65956
upperback 0.366274 3.67747 3.86116
thorax 2.3633 1.83211 3.25884
lowerneck -19.1412 -3.25725 -10.0699
upperneck 18.1794 -3.68677 9.51728
head 9.24286 -1.38995 4.47574
rclavicle 3.97569e-015 -7.15625e-015
rhumerus -26.6331 30.0273 -86.6232
rradius 45.4769
rwrist -25.4307
rhand -32.7136 -24.5848
rfingers 7.12502
rthumb -5.93767 -54.4816
lclavicle 3.97569e-015 -7.15625e-015
lhumerus -51.9267 -13.4209 98.6439
lradius 22.6914
lwrist -4.43531
lhand -8.20911 -26.2953
lfingers 7.12502
lthumb 17.7076 2.91838
rfemur -1.392 4.0247 30.1135
rtibia 19.8912
rfoot -13.2779 9.12659
rtoes -12.1941
lfemur -40.1496 4.9063 -16.09
ltibia 30.2693
lfoot -14.8748 10.7364
ltoes -15.4106
252
root 9.60741 17.2741 21.1178 9.73757 -9.04092 -4.46586
lowerback -4.02579 3.16715 1.8949
upperback -0.00668549 4.04367 3.94655
thorax 2.09274 2.01908 3.23419
lowerneck -17.6843 -3.32397 -10.8033
upperneck 17.8035 -3.75604 9.80153
head 8.87833 -1.477 4.67944
rclavicle -2.3556e-014 4.77083e-015
rhumerus -26.9285 31.2166 -86.4289
rradius 46.7455
rwrist -26.0206
rhand -32.4109 -24.079
rfingers 7.12502
rthumb -5.64543 -53.9838
lclavicle -2.3556e-014 4.77083e-015
lhumerus -53.7646 -13.2802 99.1256
lradius 22.6483
lwrist -4.68078
lhand -7.25043 -26.367
lfingers 7.12502
lthumb 18.63 2.76085
rfemur 0.0138725 3.63579 29.8681
rtibia 18.3949
rfoot -12.5712 9.84004
rtoes -12.0759
lfemur -40.1656 4.21555 -15.4493
ltibia 27.1804
lfoot -15.6078 11.1939
ltoes -16.3315
253
root 9.62246 17.2732 21.3468 9.96617 -9.42784 -4.72202
lowerback -4.56419 3.36256 2.17454
upperback 0.550759 4.23796 3.99646
thorax 2.97909 2.11417 3.20499
lowerneck -19.5669 -3.5819 -10.7252
upperneck 18.1581 -3.93316 9.66712
head 9.35769 -1.52488 4.60554
rclavicle 6.26172e-014 5.56597e-015
rhumerus -24.9778 32.4206 -85.3215
rradius 47.7982
rwrist -26.6295
rhand -32.7638 -22.2639
rfingers 7.12502
rthumb -5.98614 -52.1593
lclavicle 6.26172e-014 5.56597e-015
lhumerus -53.5852 -13.474 99.0569
lradius 22.5146
lwrist -4.40518
lhand -6.59531 -26.3747
lfingers 7.12502
lthumb 19.26 2.69156
rfemur 1.53834 3.59766 29.8387
rtibia 16.54
rfoot -11.6804 9.9782
rtoes -12.3921
lfemur -40.476 2.95887 -14.2903
ltibia 24.668
lfoot -16.8152 11.9826
ltoes -16.8395
254
root 9.63301 17.2513 21.5715 10.1763 -9.71257 -5.20803
lowerback -4.63113 3.38688 2.61964
upperback 0.399741 4.2455 4.06238
thorax 2.88797 2.12405 3.02439
lowerneck -19.4347 -3.3194 -10.0955
upperneck 18.2117 -3.68442 9.27746
head 9.30269 -1.41001 4.39593
rclavicle 5.92378e-014 -4.77083e-015
rhumerus -24.4719 33.7607 -85.306
rradius 48.709
rwrist -26.7007
rhand -31.7155 -20.1165
rfingers 7.12502
rthumb -4.97404 -50.0381
lclavicle 5.92378e-014 -4.77083e-015
lhumerus -54.8027 -13.2317 98.9363
lradius 22.5547
lwrist -3.92717
lhand -6.33281 -26.3965
lfingers 7.12502
lthumb 19.5124 2.64441
rfemur 3.18105 3.40146 30.1033
rtibia 14.5588
rfoot -10.711 10.2114
rtoes -14.2861
lfemur -40.9587 1.47807 -12.6619
ltibia 22.6175
lfoot -18.6177 12.2868
ltoes -11.3818
